<?xml version="1.0" encoding="UTF-8" standalone="no"?>
<!-- Created with Inkscape (http://www.inkscape.org/) -->

<svg
   width="500"
   height="500"
   viewBox="0 0 132.29167 132.29167"
   version="1.1"
   id="svg5"
   inkscape:version="1.1.1 (c3084ef, 2021-09-22)"
   sodipodi:docname="api.svg"
   xmlns:inkscape="http://www.inkscape.org/namespaces/inkscape"
   xmlns:sodipodi="http://sodipodi.sourceforge.net/DTD/sodipodi-0.dtd"
   xmlns="http://www.w3.org/2000/svg"
   xmlns:svg="http://www.w3.org/2000/svg">
  <sodipodi:namedview
     id="namedview7"
     pagecolor="#ffffff"
     bordercolor="#eeeeee"
     borderopacity="1"
     inkscape:pageshadow="0"
     inkscape:pageopacity="0"
     inkscape:pagecheckerboard="0"
     inkscape:document-units="px"
     showgrid="false"
     inkscape:zoom="0.55678311"
     inkscape:cx="324.18368"
     inkscape:cy="273.8948"
     inkscape:window-width="1312"
     inkscape:window-height="847"
     inkscape:window-x="0"
     inkscape:window-y="25"
     inkscape:window-maximized="0"
     inkscape:current-layer="layer1"
     units="px" />
  <defs
     id="defs2" />
  <g
     inkscape:label="Layer 1"
     inkscape:groupmode="layer"
     id="layer1">
    <path
       style="fill:#333333;stroke-width:0.236622"
       d="m 65.436124,121.34101 c -0.374395,-0.0686 -2.504889,-2.00907 -5.803596,-5.28587 l -5.212044,-5.17744 -21.526273,-0.0641 -21.526275,-0.064 -1.082681,-0.53353 C 8.5265183,109.3494 7.3151231,108.14704 6.4679619,106.42725 l -0.77896,-1.58134 -0.079243,-5.015211 c -0.086824,-5.494908 0.062626,-6.303998 1.2853269,-6.958364 1.1715782,-0.627012 3.0555279,-0.143233 3.5586522,0.91382 0.104686,0.219944 0.246744,2.582734 0.315687,5.250651 0.137242,5.310934 0.216055,5.624004 1.578569,6.270554 0.647555,0.30729 3.62011,0.35487 22.170128,0.35487 14.596363,0 21.634556,0.0804 22.088421,0.25233 0.366365,0.13878 2.662615,2.23808 5.102783,4.6651 l 4.436667,4.41279 4.436667,-4.41279 c 2.440168,-2.42702 4.736418,-4.52632 5.102783,-4.6651 0.453866,-0.17192 7.492058,-0.25233 22.088421,-0.25233 18.550016,0 21.522576,-0.0476 22.170126,-0.35487 1.36252,-0.64655 1.44133,-0.95962 1.57857,-6.270554 0.0689,-2.667917 0.21101,-5.030707 0.31568,-5.250651 0.50313,-1.057053 2.38708,-1.540832 3.55866,-0.91382 1.22269,0.654366 1.37216,1.463456 1.28532,6.958364 l -0.0792,5.015211 -0.77896,1.58134 c -0.84717,1.71979 -2.05855,2.92215 -3.81729,3.78883 l -1.08269,0.53353 -21.526269,0.064 -21.526273,0.0641 -5.233874,5.2008 c -2.878631,2.86044 -5.401682,5.20079 -5.606778,5.20079 -0.205098,0 -0.514713,0.0383 -0.688034,0.0851 -0.173324,0.0468 -0.581332,0.0363 -0.906687,-0.0234 z M 17.727941,84.265664 c -1.584146,-0.69554 -1.509248,0.0884 -1.509248,-15.796915 0,-13.918452 0.01535,-14.41346 0.485963,-15.671286 0.678953,-1.814663 2.227316,-3.456122 4.05707,-4.301003 l 1.490834,-0.688387 6.033868,-0.08199 c 3.985748,-0.05416 6.579761,0.01403 7.642098,0.200925 2.696918,0.474451 4.975915,2.367713 6.020545,5.001537 0.367707,0.927095 0.417028,2.411379 0.486394,14.637493 0.04246,7.48318 0.01233,14.048915 -0.06692,14.590523 -0.260814,1.782054 -1.921638,2.788132 -3.507977,2.125028 -1.407273,-0.588252 -1.453286,-0.753665 -1.582484,-5.68899 l -0.118311,-4.519448 -7.849213,-0.06232 -7.849213,-0.06232 -0.07764,4.439836 c -0.07972,4.55929 -0.184651,5.088198 -1.126082,5.676131 -0.71347,0.445569 -1.779922,0.530389 -2.529681,0.201198 z M 37.264719,62.182877 c -0.01451,-7.124812 -0.116652,-7.835937 -1.246072,-8.673706 -0.636466,-0.472112 -0.949103,-0.495407 -6.648365,-0.495407 -4.799142,0 -6.10849,0.06846 -6.628452,0.346566 -1.260776,0.67434 -1.317448,1.040618 -1.317448,8.515018 v 6.873796 h 7.926847 7.926846 l -0.01335,-6.566267 z m 19.97914,22.082787 c -1.595948,-0.700722 -1.509248,0.340177 -1.509248,-18.119365 0,-18.520742 -0.09351,-17.435144 1.561369,-18.126598 1.147665,-0.479527 11.868277,-0.458665 14.174011,0.02757 4.550692,0.959672 8.51774,4.566623 9.875675,8.979235 1.844532,5.993811 -1.096514,12.838986 -6.681273,15.550411 -2.476006,1.202112 -3.622312,1.377909 -8.984858,1.377909 h -4.702361 l -0.07759,4.491757 -0.07759,4.491756 -0.709867,0.691507 c -0.864798,0.842432 -1.8834,1.068227 -2.868264,0.635809 z M 72.061547,68.010263 c 2.874937,-1.370886 4.558359,-4.023918 4.540292,-7.155389 -0.01772,-3.070974 -1.671225,-5.676395 -4.480045,-7.059173 l -1.5712,-0.7735 -4.805146,-0.0906 -4.805147,-0.0906 v 7.967346 7.967346 l 4.909912,-0.07243 c 4.735441,-0.06987 4.956158,-0.09449 6.211334,-0.693007 z m 19.716998,16.427964 c -0.736047,-0.143372 -1.651729,-1.141023 -1.820139,-1.983067 -0.184751,-0.923762 0.319921,-2.136623 1.10238,-2.649313 0.502549,-0.329281 1.354825,-0.409029 4.942195,-0.462454 l 4.334929,-0.06456 V 66.146299 53.013764 l -4.334929,-0.06456 c -4.815325,-0.07171 -5.272895,-0.198437 -5.86914,-1.625451 -0.616605,-1.475744 0.278669,-3.175128 1.836915,-3.486776 0.404847,-0.08097 5.464554,-0.147217 11.243794,-0.147217 11.27779,0 11.65015,0.03615 12.47288,1.210766 0.50564,0.721894 0.48759,2.318309 -0.0335,2.961585 -0.75927,0.937329 -1.29047,1.033339 -5.71727,1.033339 h -4.27476 v 13.250847 13.250847 h 4.27476 c 4.4268,0 4.958,0.09601 5.71727,1.033339 0.52108,0.643276 0.53913,2.239692 0.0335,2.961585 -0.8277,1.181716 -1.1661,1.21317 -12.67992,1.178543 -5.893118,-0.01772 -10.946152,-0.0773 -11.228965,-0.132384 z M 7.5410181,39.710571 C 6.7843579,39.572083 5.8398719,38.520737 5.6729926,37.631196 5.5927949,37.203705 5.5635898,34.737341 5.6080845,32.15039 l 0.080908,-4.703547 0.7789599,-1.581411 C 7.3151161,24.14556 8.5264484,22.943236 10.285246,22.07653 l 1.08268,-0.533528 21.526276,-0.06406 21.526273,-0.06406 5.212044,-5.167794 c 3.610159,-3.579513 5.412031,-5.204213 5.862751,-5.28629 1.466971,-0.267137 1.843146,0.01048 7.164174,5.28629 l 5.212044,5.167794 21.526273,0.06406 21.526269,0.06406 1.08269,0.533528 c 1.75874,0.866677 2.97012,2.069039 3.81729,3.78883 l 0.77896,1.581339 0.0792,5.015212 c 0.0869,5.494909 -0.0626,6.303998 -1.28532,6.958365 -1.17158,0.627011 -3.05553,0.143232 -3.55866,-0.913821 -0.10469,-0.219943 -0.24674,-2.582734 -0.31568,-5.250651 -0.13724,-5.310934 -0.21605,-5.624003 -1.57857,-6.270559 -0.64755,-0.307284 -3.62011,-0.354864 -22.170126,-0.354864 -14.596363,0 -21.634555,-0.08039 -22.088421,-0.25233 -0.366365,-0.138781 -2.662615,-2.238079 -5.102783,-4.665109 l -4.436667,-4.412778 -4.436667,4.412778 c -2.440168,2.42703 -4.736418,4.526328 -5.102783,4.665109 -0.453865,0.171929 -7.492057,0.25233 -22.088421,0.25233 -18.550018,0 -21.522573,0.04758 -22.170128,0.354864 -1.362514,0.646556 -1.441327,0.959625 -1.578569,6.270559 -0.06894,2.667917 -0.211002,5.030708 -0.315687,5.250651 -0.384125,0.807038 -1.8258388,1.403042 -2.9127174,1.204116 z"
       id="path1869" />
  </g>
</svg>
