<?xml version="1.0" encoding="UTF-8" standalone="no"?>
<!-- Created with Inkscape (http://www.inkscape.org/) -->

<svg
   width="500"
   height="500"
   viewBox="0 0 132.29167 132.29167"
   version="1.1"
   id="svg5"
   inkscape:version="1.1.1 (c3084ef, 2021-09-22)"
   sodipodi:docname="chat.svg"
   xmlns:inkscape="http://www.inkscape.org/namespaces/inkscape"
   xmlns:sodipodi="http://sodipodi.sourceforge.net/DTD/sodipodi-0.dtd"
   xmlns="http://www.w3.org/2000/svg"
   xmlns:svg="http://www.w3.org/2000/svg">
  <sodipodi:namedview
     id="namedview7"
     pagecolor="#ffffff"
     bordercolor="#eeeeee"
     borderopacity="1"
     inkscape:pageshadow="0"
     inkscape:pageopacity="0"
     inkscape:pagecheckerboard="0"
     inkscape:document-units="px"
     showgrid="false"
     inkscape:zoom="0.55678311"
     inkscape:cx="324.18368"
     inkscape:cy="273.8948"
     inkscape:window-width="1312"
     inkscape:window-height="847"
     inkscape:window-x="0"
     inkscape:window-y="25"
     inkscape:window-maximized="0"
     inkscape:current-layer="layer1"
     units="px" />
  <defs
     id="defs2" />
  <g
     inkscape:label="Layer 1"
     inkscape:groupmode="layer"
     id="layer1">
    <path
       style="fill:#333333;stroke-width:0.264583"
       d="m 102.65289,112.3033 c -0.56516,-0.24202 -4.070835,-3.5341 -8.995832,-8.44772 l -8.069792,-8.051161 -15.478125,-0.07906 c -15.36396,-0.07847 -15.491786,-0.08357 -17.330209,-0.691298 -3.331146,-1.101172 -7.183256,-3.858606 -8.766906,-6.275565 l -0.44628,-0.681098 2.4847,-2.495076 c 2.2025,-2.211698 2.59047,-2.494701 3.41597,-2.491799 0.76737,0.0027 1.03414,0.162137 1.515831,0.905936 0.732566,1.131195 2.684767,2.491108 4.254045,2.963392 0.954273,0.287195 4.422725,0.36073 17.014342,0.36073 10.376802,0 16.071866,0.09536 16.560554,0.277291 0.409657,0.152509 3.08764,2.613274 5.951077,5.468369 l 5.206252,5.19108 0.08541,-4.127082 c 0.0761,-3.677862 0.14479,-4.206496 0.63093,-4.856707 1.25119,-1.673469 1.66445,-1.808345 6.02195,-1.965402 3.29708,-0.118835 4.23477,-0.243732 5.23888,-0.697791 1.74434,-0.788802 3.27596,-2.276941 4.12692,-4.009782 l 0.73548,-1.497684 V 66.153919 51.20496 l -0.73548,-1.497684 c -0.84697,-1.724703 -2.37148,-3.210542 -4.12692,-4.022231 -1.1423,-0.528179 -1.71632,-0.570865 -8.69749,-0.64676 l -7.474483,-0.08126 v -4.218221 -4.21822 l 7.209903,0.0046 c 7.95478,0.0051 9.68042,0.218173 12.47839,1.540991 4.93685,2.33403 8.46173,6.774196 9.52885,12.003157 0.61592,3.018041 0.61592,29.151144 0,32.169185 -1.05801,5.184302 -4.7057,9.775154 -9.5178,11.978752 -1.56165,0.715113 -4.99798,1.569979 -6.31095,1.569979 h -0.65683 l -0.0819,7.077602 c -0.0809,6.98545 -0.0902,7.08921 -0.71721,7.96834 -0.68218,0.95648 -2.39011,1.87862 -3.46576,1.87123 -0.3638,-0.002 -1.07817,-0.183 -1.5875,-0.40112 z M 26.178226,95.191941 c -0.86243,-0.434893 -1.34096,-0.913432 -1.77586,-1.775855 -0.57054,-1.131424 -0.59531,-1.458912 -0.59531,-7.871354 v -6.690813 h -0.67261 c -1.32699,0 -4.75701,-0.851164 -6.32674,-1.56999 -4.81209,-2.203598 -8.4597796,-6.794449 -9.5177896,-11.978751 -0.5766,-2.825364 -0.61107,-29.54404 -0.0416,-32.224176 1.07581,-5.062914 4.5747996,-9.498907 9.2826696,-11.768504 3.6479,-1.758598 3.01622,-1.725247 32.67604,-1.725247 29.663662,0 29.031289,-0.03342 32.676044,1.726884 4.865431,2.349854 8.180514,6.623401 9.256268,11.932456 0.368004,1.816171 0.415033,4.121841 0.344924,16.909804 l -0.08118,14.806899 -0.715851,2.116667 c -2.007003,5.934408 -6.688527,10.111917 -12.730491,11.35992 -1.677533,0.346503 -4.390951,0.414038 -16.635522,0.414038 H 46.690176 l -7.93584,7.964716 c -9.40172,9.435912 -9.86165,9.742143 -12.57614,8.373306 z M 43.148306,70.5953 c 0.0581,-0.03109 7.666095,-0.120391 16.906668,-0.198438 l 16.801042,-0.141901 1.497685,-0.735484 c 1.724702,-0.846968 3.210541,-2.371481 4.02223,-4.126923 0.552855,-1.19566 0.567172,-1.549188 0.640141,-15.808614 0.0726,-14.187858 0.05974,-14.625434 -0.471845,-16.046212 -0.726715,-1.94232 -2.314768,-3.694943 -4.176265,-4.609058 l -1.511946,-0.74246 h -27.64896 -27.64896 l -1.22301,0.565502 c -1.75544,0.811688 -3.27995,2.297528 -4.12692,4.02223 l -0.73548,1.497685 v 14.948958 14.948959 l 0.74373,1.514541 c 0.8318,1.693905 2.36604,3.170714 4.15106,3.995701 0.9792,0.452562 1.90372,0.575976 5.20649,0.695015 4.3575,0.157057 4.77077,0.291933 6.02195,1.965402 0.48598,0.649991 0.55482,1.178843 0.63077,4.845375 l 0.0852,4.115748 5.36537,-5.324745 c 2.95096,-2.92861 5.4129,-5.350188 5.471,-5.381281 z"
       id="path998" />
  </g>
</svg>
