<?xml version="1.0" encoding="UTF-8" standalone="no"?>
<!-- Created with Inkscape (http://www.inkscape.org/) -->

<svg
   width="500"
   height="500"
   viewBox="0 0 132.29167 132.29167"
   version="1.1"
   id="svg5"
   inkscape:version="1.1.1 (c3084ef, 2021-09-22)"
   sodipodi:docname="chat.svg"
   xmlns:inkscape="http://www.inkscape.org/namespaces/inkscape"
   xmlns:sodipodi="http://sodipodi.sourceforge.net/DTD/sodipodi-0.dtd"
   xmlns="http://www.w3.org/2000/svg"
   xmlns:svg="http://www.w3.org/2000/svg">
  <sodipodi:namedview
     id="namedview7"
     pagecolor="#ffffff"
     bordercolor="#eeeeee"
     borderopacity="1"
     inkscape:pageshadow="0"
     inkscape:pageopacity="0"
     inkscape:pagecheckerboard="0"
     inkscape:document-units="px"
     showgrid="false"
     inkscape:zoom="0.55678311"
     inkscape:cx="611.54872"
     inkscape:cy="273.8948"
     inkscape:window-width="1312"
     inkscape:window-height="847"
     inkscape:window-x="0"
     inkscape:window-y="25"
     inkscape:window-maximized="0"
     inkscape:current-layer="layer1"
     units="px" />
  <defs
     id="defs2" />
  <g
     inkscape:label="Layer 1"
     inkscape:groupmode="layer"
     id="layer1">
    <path
       id="path1267"
       style="color:#000000;fill:#333333;stroke-width:9.44882;-inkscape-stroke:none;paint-order:fill markers stroke"
       d="M 185.97852 78.757812 C 129.92675 78.757813 102.43992 78.734445 87.607422 79.517578 C 72.774927 80.300715 71.512429 81.445966 64.533203 84.810547 C 48.084019 92.740464 35.765411 108.36274 32.015625 126.00977 C 31.91343 126.49073 31.604281 129.30931 31.410156 132.98438 C 31.216032 136.65944 31.057214 141.44325 30.929688 146.94336 C 30.674634 157.94358 30.558242 171.82001 30.576172 185.71289 C 30.594102 199.60577 30.741823 213.52419 31.025391 224.59375 C 31.167174 230.12853 31.346928 234.94913 31.550781 238.67773 C 31.754634 242.40634 32.058072 245.25037 32.185547 245.875 C 35.868181 263.92009 48.741462 280.12622 65.492188 287.79688 C 70.339915 290.0168 84.442342 293.30469 87.4375 293.30469 L 94.703125 293.30469 L 94.703125 323.32031 C 94.703125 335.43222 94.740839 341.82019 95.005859 345.32422 C 95.270869 348.82825 95.437263 348.94432 96.445312 350.94336 C 97.778038 353.5862 98.423591 354.22982 101.06641 355.5625 C 103.52015 356.79985 104.89529 357.28567 105.83398 357.3125 C 106.77268 357.33934 107.97256 357.08961 110.60938 355.33398 C 115.88301 351.82275 125.36909 342.61736 143.12695 324.79492 L 174.50781 293.30469 L 231.76172 293.30469 C 278.023 293.30469 288.21064 292.966 293.68164 291.83594 C 314.94545 287.44377 331.19643 272.97211 338.2832 252.01758 L 340.74023 244.73828 L 341.04297 189.54492 C 341.30787 141.22721 341.08392 132.77009 339.83203 126.5918 C 336.04336 107.89396 324.55161 93.081801 307.42578 84.810547 C 300.45225 81.442549 299.18926 80.301422 284.35742 79.517578 C 269.52559 78.733814 242.03755 78.757812 185.97852 78.757812 z M 80.441406 101.80273 L 185.97852 101.80273 L 291.57812 101.80273 L 298.27344 105.0957 C 306.49937 109.13516 313.19099 116.51845 316.40234 125.10156 C 317.45831 127.92388 318.21278 130.87116 318.44727 138.8457 C 318.6819 146.82025 318.62157 160.61243 318.48438 187.42578 C 318.34648 214.37408 318.27027 228.1526 317.95312 235.98438 C 317.79456 239.90026 317.58751 242.35793 317.20703 244.36914 C 316.82656 246.38036 316.1833 247.93547 315.62695 249.13867 C 312.07469 256.82116 305.789 263.27164 298.2207 266.98828 L 291.59961 270.24414 L 227.02344 270.78906 C 209.56522 270.93653 193.64813 271.09659 182.07422 271.23242 C 176.28727 271.30034 171.58162 271.3654 168.32227 271.41797 C 166.89148 271.44114 165.86581 271.45804 165.0293 271.47656 C 164.87666 271.6243 164.79495 271.70027 164.61523 271.875 C 163.54997 272.91062 162.02838 274.40463 160.1582 276.24414 C 156.41785 279.92316 151.30489 284.97755 145.73242 290.50781 L 117.63086 318.39648 L 117.07617 291.82031 C 116.93316 284.91629 116.77862 280.98261 116.50781 278.90234 C 116.23701 276.82207 116.25121 277.06015 115.63672 276.23828 C 113.38521 273.22686 112.94898 272.68213 110.97266 272.03711 C 108.99633 271.39209 104.67964 270.99643 96.488281 270.70117 C 83.919637 270.24817 79.431987 269.69289 75 267.64453 C 67.240256 264.05819 60.72493 257.8241 57.046875 250.33398 L 53.755859 243.625 L 53.755859 186.03125 L 53.755859 128.42969 L 57.017578 121.78711 C 60.734226 114.21882 67.192513 107.93312 74.875 104.38086 L 80.441406 101.80273 z M 366.70312 142.75781 L 366.70312 153.9707 L 366.70312 165.24414 L 390.28125 165.50195 C 403.48223 165.64547 410.61211 165.74385 415.29102 166.0918 C 419.96988 166.43973 422.69765 167.27656 425.08594 168.38086 C 432.76843 171.93312 439.22672 178.21882 442.94336 185.78711 L 446.20508 192.43164 L 446.20508 250.03125 L 446.20508 307.625 L 442.94336 314.27539 C 439.21021 321.87738 432.72822 328.17967 425.04883 331.65234 C 420.54397 333.68944 416.02091 334.2489 403.47266 334.70117 C 395.28132 334.99641 390.95678 335.39209 388.98047 336.03711 C 387.00415 336.68213 386.57377 337.22686 384.32227 340.23828 C 383.70745 341.06072 383.72216 340.8241 383.45117 342.91016 C 383.18037 344.99621 383.0202 348.93966 382.87695 355.86523 L 382.33008 382.52148 L 354.81836 355.08984 C 349.44804 349.73517 344.24974 344.74272 340.23828 341.05664 C 338.23255 339.2136 336.51656 337.69586 335.27148 336.65039 C 334.6793 336.15314 334.2085 335.78384 333.88672 335.54297 C 333.89046 335.55442 333.84607 335.5623 333.63086 335.54297 C 332.90891 335.47811 331.8107 335.40713 330.40625 335.34375 C 327.59735 335.21695 323.53929 335.10714 318.30664 335.01953 C 307.84134 334.84431 292.66553 334.75391 273.07031 334.75391 C 249.26596 334.75391 234.08707 334.68736 224.32812 334.48047 C 214.56918 334.27357 210.61755 334.15533 207.4082 333.18945 C 200.11593 330.9948 192.63591 326.07285 188.72461 320.0332 C 188.06107 319.00858 187.80723 318.79608 187.83398 318.80078 C 187.73127 318.78945 187.48978 318.7655 186.94531 318.76367 C 185.92779 318.76009 186.50901 318.50417 185.24023 319.42969 C 183.97145 320.35521 181.52995 322.64418 177.39453 326.79688 L 170.83203 333.38867 C 176.06727 340.92073 189.81205 351.01246 200.96484 354.69922 C 204.41178 355.83867 205.19252 356.2021 213.24805 356.52344 C 221.30357 356.84478 235.96819 356.92009 265.00195 357.06836 L 325.44531 357.37891 L 357.3125 389.17969 C 366.59626 398.44202 374.54663 406.17259 380.39648 411.66602 C 383.32142 414.41275 385.72537 416.6047 387.47461 418.11719 C 388.34923 418.87347 389.06168 419.46296 389.54883 419.83789 C 389.77486 420.01184 389.98481 420.13336 390.0957 420.19922 C 391.5053 420.7357 394.15753 421.24887 394.00781 421.24805 C 394.67339 421.25262 396.88739 420.70275 398.84375 419.64648 C 400.80011 418.59022 402.61271 417.02869 403.23633 416.1543 C 404.37676 414.55552 404.20085 415.46348 404.50586 412.07227 C 404.81102 408.68108 404.91371 401.92167 405.06641 388.72266 L 405.42773 357.30469 L 412.58203 357.30469 C 415.49374 357.30469 429.6559 354.00273 434.46875 351.79883 C 451.2195 344.12817 464.09273 327.92205 467.77539 309.87695 C 468.09023 308.33408 468.70463 299.47229 468.99414 288.49219 C 469.28343 277.51209 469.42969 263.77016 469.42969 250.03125 C 469.42965 236.29234 469.28365 222.54455 468.99414 211.56445 C 468.70478 200.58436 468.09023 191.72256 467.77539 190.17969 C 464.04496 171.90042 451.72448 156.34398 434.37305 148.14062 C 429.33626 145.75933 425.82983 144.56153 419.54297 143.78516 C 413.25606 143.00877 404.21531 142.78289 389.22461 142.77344 L 366.70312 142.75781 z "
       transform="scale(0.26458334)" />
  </g>
</svg>
