<?xml version="1.0" encoding="UTF-8" standalone="no"?>
<!-- Created with Inkscape (http://www.inkscape.org/) -->

<svg
   width="500"
   height="500"
   viewBox="0 0 132.29167 132.29167"
   version="1.1"
   id="svg5"
   inkscape:version="1.1.1 (c3084ef, 2021-09-22)"
   sodipodi:docname="neivus_favicon.svg"
   xmlns:inkscape="http://www.inkscape.org/namespaces/inkscape"
   xmlns:sodipodi="http://sodipodi.sourceforge.net/DTD/sodipodi-0.dtd"
   xmlns="http://www.w3.org/2000/svg"
   xmlns:svg="http://www.w3.org/2000/svg">
  <sodipodi:namedview
     id="namedview7"
     pagecolor="#ffffff"
     bordercolor="#eeeeee"
     borderopacity="1"
     inkscape:pageshadow="0"
     inkscape:pageopacity="0"
     inkscape:pagecheckerboard="0"
     inkscape:document-units="px"
     showgrid="false"
     inkscape:zoom="0.55678311"
     inkscape:cx="324.18368"
     inkscape:cy="273.8948"
     inkscape:window-width="1312"
     inkscape:window-height="847"
     inkscape:window-x="0"
     inkscape:window-y="25"
     inkscape:window-maximized="0"
     inkscape:current-layer="layer1"
     units="px" />
  <defs
     id="defs2" />
  <g
     inkscape:label="Layer 1"
     inkscape:groupmode="layer"
     id="layer1">
    <g
       id="g2276"
       transform="matrix(4.7996069,0,0,4.7996069,-669.87855,499.62399)"
       style="fill:#ff6b6b;fill-opacity:1">
      <path
         style="fill:#ff6b6b;fill-opacity:1;stroke-width:0.021527"
         d="m 161.64549,-92.51462 c -1.42668,-0.133994 -2.96494,-0.713757 -4.84357,-1.82552 -0.87054,-0.515183 -1.49533,-0.972884 -2.80927,-2.057966 -1.75506,-1.44938 -3.18109,-2.323732 -4.53326,-2.779512 -0.62068,-0.209216 -1.09571,-0.298038 -1.69025,-0.316048 -0.5962,-0.01806 -1.12313,0.05005 -1.77677,0.229681 -0.68628,0.188589 -1.63374,0.555501 -2.40164,0.930049 -0.20136,0.09821 -0.2507,0.09984 -0.26112,0.0087 -0.006,-0.05668 0.0411,-0.110702 0.48436,-0.54986 1.40616,-1.393204 2.74947,-2.373914 4.37716,-3.195624 1.5841,-0.79971 3.17344,-1.25572 4.92968,-1.41441 0.42405,-0.0383 1.56586,-0.0323 2.00593,0.0105 1.60283,0.15612 2.93632,0.54239 4.36819,1.2653 1.85244,0.93526 3.48007,2.395518 4.90881,4.227106 0.9161,1.174411 1.52044,2.873935 0.84985,4.09682 -0.6186,1.128098 -2.01635,1.520312 -3.6081,1.370813 z"
         id="path2267" />
      <path
         style="fill:#ff6b6b;fill-opacity:1;stroke-width:0.0217082"
         d="m 144.40625,-89.990281 c -0.87578,-1.256951 -1.03319,-2.642115 -0.41599,-3.660334 0.34808,-0.574244 0.84974,-0.980277 1.56533,-1.266965 1.63025,-0.653116 3.96305,-0.288731 5.82618,0.910047 0.6796,0.437273 1.08097,0.78532 1.56358,1.355853 0.3316,0.391988 0.51777,0.662423 0.70717,1.02706 0.23274,0.448141 0.38716,0.951651 0.43368,1.414119 0.0287,0.285647 -0.015,0.791473 -0.091,1.051405 -0.10853,0.371473 -0.30902,0.73926 -0.55666,1.021173 -0.1411,0.160564 -0.48081,0.447976 -0.67285,0.569203 -0.42462,0.267951 -0.99661,0.47237 -1.55807,0.556858 -2.43806,0.366873 -5.36304,-0.914006 -6.80137,-2.978384 z"
         id="path2269" />
      <path
         style="fill:#ff6b6b;fill-opacity:1;stroke-width:0.021527"
         d="m 153.04547,-77.124674 c -0.44855,-0.0278 -0.78317,-0.0573 -1.07293,-0.095 -2.37312,-0.30826 -4.61299,-1.32024 -6.48305,-2.9291 -0.4602,-0.39591 -0.66304,-0.59314 -1.17495,-1.14243 -1.16245,-1.247365 -2.17997,-2.890886 -2.87976,-4.651455 -0.2266,-0.570094 -0.29008,-0.760493 -0.27439,-0.823008 0.019,-0.07586 0.10293,-0.0736 0.16319,0.0046 0.0629,0.08139 0.56443,0.551655 0.97991,0.9188 1.18403,1.046276 2.08902,1.688223 3.09989,2.198876 1.05656,0.53374 2.00156,0.820312 3.16447,0.959622 0.29818,0.0357 1.21662,0.0356 1.50689,-2.3e-4 1.26024,-0.15551 2.2751,-0.506527 4.12861,-1.42799 1.26708,-0.629929 1.64926,-0.841001 3.45965,-1.91073 1.8626,-1.100582 3.50681,-1.800944 4.70365,-2.021757 1.6561,-0.305546 2.94135,0.423378 3.14305,1.885131 0.10711,0.776264 -0.0407,1.606173 -0.40535,2.357701 -0.12096,0.249298 -0.2584,0.474478 -0.50817,0.832599 -0.0363,0.0521 -0.0661,0.112014 -0.0661,0.133126 0,0.0798 -0.72201,0.911125 -1.25937,1.450105 -2.47872,2.4862 -5.52575,3.96147 -8.73992,4.23156 -0.27561,0.0232 -1.27036,0.0432 -1.48536,0.0299 z"
         id="path2271" />
    </g>
  </g>
</svg>
