<?xml version="1.0" encoding="UTF-8" standalone="no"?>
<!-- Created with Inkscape (http://www.inkscape.org/) -->

<svg
   width="250mm"
   height="100mm"
   viewBox="0 0 250 100"
   version="1.1"
   id="svg5"
   inkscape:version="1.1.1 (c3084ef, 2021-09-22)"
   sodipodi:docname="neivus_text.svg"
   xmlns:inkscape="http://www.inkscape.org/namespaces/inkscape"
   xmlns:sodipodi="http://sodipodi.sourceforge.net/DTD/sodipodi-0.dtd"
   xmlns="http://www.w3.org/2000/svg"
   xmlns:svg="http://www.w3.org/2000/svg">
  <sodipodi:namedview
     id="namedview7"
     pagecolor="#ffffff"
     bordercolor="#eeeeee"
     borderopacity="1"
     inkscape:pageshadow="0"
     inkscape:pageopacity="0"
     inkscape:pagecheckerboard="0"
     inkscape:document-units="mm"
     showgrid="false"
     inkscape:zoom="0.27839155"
     inkscape:cx="752.5372"
     inkscape:cy="364.59439"
     inkscape:window-width="1312"
     inkscape:window-height="847"
     inkscape:window-x="0"
     inkscape:window-y="25"
     inkscape:window-maximized="0"
     inkscape:current-layer="layer1" />
  <defs
     id="defs2" />
  <g
     inkscape:label="Layer 1"
     inkscape:groupmode="layer"
     id="layer1">
    <g
       id="g2319"
       transform="translate(-64.90808,6.4493943)">
      <path
         d="m 110.63776,32.31315 q 7.4186,0 11.06045,3.844175 3.70927,3.776735 3.70927,12.139502 V 71.092114 H 115.02147 V 48.296827 q 0,-3.372084 -1.48372,-4.990684 -1.4837,-1.686043 -5.12555,-1.686043 -4.31628,0 -8.632542,3.574409 V 71.092114 H 89.393641 V 33.122451 h 10.386017 v 3.304641 Q 104.77033,32.31315 110.63776,32.31315 Z"
         id="path1893"
         style="font-weight:800;font-size:26.6163px;line-height:1.25;font-family:Biryani;-inkscape-font-specification:'Biryani, Ultra-Bold';fill:#141414;fill-opacity:1;stroke-width:1.68604" />
      <path
         d="m 138.56954,54.973553 q 1.21394,8.565093 10.65577,8.565093 2.56278,0 4.99069,-0.674417 2.49533,-0.674417 5.59765,-2.158135 l 2.76511,8.093004 q -3.43952,1.888366 -6.87904,2.630223 -3.3721,0.809302 -7.82323,0.809302 -6.47442,0 -11.06045,-2.495342 -4.58602,-2.562785 -6.94647,-7.081377 -2.36049,-4.586033 -2.36049,-10.588343 0,-6.339517 2.42791,-10.858109 2.42791,-4.518594 6.60929,-6.811611 4.18139,-2.360457 9.30696,-2.360457 8.16043,0 12.74647,4.788358 4.65346,4.788358 4.65346,14.02787 v 4.113941 z m 7.2837,-14.230192 q -2.83257,0 -4.65349,1.483715 -1.75348,1.483718 -2.42789,4.855802 h 13.62322 q -0.33721,-3.304643 -1.95581,-4.788361 -1.61859,-1.551156 -4.58603,-1.551156 z"
         id="path1895"
         style="font-weight:800;font-size:26.6163px;line-height:1.25;font-family:Biryani;-inkscape-font-specification:'Biryani, Ultra-Bold';fill:#141414;fill-opacity:1;stroke-width:1.68604" />
      <path
         d="M 218.34728,33.122451 205.6008,71.699088 H 192.24734 L 179.36599,33.122451 h 10.65577 l 8.9023,28.932477 8.76742,-28.932477 z"
         id="path1897"
         style="font-weight:800;font-size:26.6163px;line-height:1.25;font-family:Biryani;-inkscape-font-specification:'Biryani, Ultra-Bold';fill:#141414;fill-opacity:1;stroke-width:1.68604" />
      <path
         d="m 256.35356,33.122451 v 37.969663 h -10.38602 v -3.237202 q -5.05811,4.046501 -10.85809,4.046501 -7.41861,0 -11.12788,-3.776732 -3.64185,-3.776734 -3.64185,-12.139504 V 33.122451 h 10.38602 v 22.862726 q 0,3.372084 1.48372,5.058127 1.55114,1.6186 5.12557,1.6186 4.2488,0 8.63251,-3.64185 V 33.122451 Z"
         id="path1899"
         style="font-weight:800;font-size:26.6163px;line-height:1.25;font-family:Biryani;-inkscape-font-specification:'Biryani, Ultra-Bold';fill:#141414;fill-opacity:1;stroke-width:1.68604" />
      <path
         d="m 274.84351,72.238623 q -4.65349,0 -8.22789,-0.741858 -3.50697,-0.74186 -7.35115,-2.562785 v -9.30695 q 3.7093,2.090691 7.48603,3.034874 3.84418,0.876742 8.09301,0.876742 5.05812,0 5.05812,-3.372084 0,-1.348833 -0.80929,-2.090691 -0.80931,-0.74186 -2.56278,-1.146508 l -6.00231,-1.281393 q -5.46277,-1.146508 -8.09301,-3.844175 -2.63023,-2.697667 -2.63023,-7.486028 0,-12.274383 15.37671,-12.274383 6.33951,0 13.48833,2.427901 v 8.969743 q -2.63024,-1.213952 -6.13718,-1.955809 -3.43953,-0.741858 -6.87907,-0.741858 -2.96742,0 -4.18138,0.741858 -1.1465,0.741857 -1.1465,2.158132 0,1.213951 0.74186,1.820927 0.74187,0.539532 2.36046,0.944183 l 6.00231,1.28139 q 5.73253,1.146511 8.36276,3.844178 2.63021,2.697667 2.63021,8.093001 0,6.272076 -4.2488,9.441834 -4.18139,3.169759 -11.33021,3.169759 z"
         id="path1901"
         style="font-weight:800;font-size:26.6163px;line-height:1.25;font-family:Biryani;-inkscape-font-specification:'Biryani, Ultra-Bold';fill:#141414;fill-opacity:1;stroke-width:1.68604" />
      <g
         id="g1907"
         transform="matrix(2.5338486,0,0,2.5338486,-360.48167,200.84177)"
         style="fill:#141414;fill-opacity:1">
        <path
           style="font-weight:800;font-size:26.6163px;line-height:1.25;font-family:Biryani;-inkscape-font-specification:'Biryani, Ultra-Bold';fill:#141414;fill-opacity:1;stroke-width:0.665408"
           d="m 207.9962,-66.191535 h 4.09891 v 14.984977 h -4.09891 z"
           id="path1903" />
        <ellipse
           style="fill:#ff6b6b;fill-opacity:1;stroke:none;stroke-width:0.605444;stroke-linecap:round;stroke-linejoin:round;paint-order:stroke fill markers"
           id="ellipse1905"
           cx="210.04565"
           cy="-70.760162"
           rx="2.638"
           ry="2.6377437" />
      </g>
    </g>
  </g>
</svg>
