<?xml version="1.0" encoding="UTF-8" standalone="no"?>
<!-- Created with Inkscape (http://www.inkscape.org/) -->

<svg
   width="297mm"
   height="100mm"
   viewBox="0 0 297 100"
   version="1.1"
   id="svg5"
   inkscape:version="1.1.1 (c3084ef, 2021-09-22)"
   sodipodi:docname="neivus.svg"
   xmlns:inkscape="http://www.inkscape.org/namespaces/inkscape"
   xmlns:sodipodi="http://sodipodi.sourceforge.net/DTD/sodipodi-0.dtd"
   xmlns="http://www.w3.org/2000/svg"
   xmlns:svg="http://www.w3.org/2000/svg">
  <sodipodi:namedview
     id="namedview7"
     pagecolor="#ffffff"
     bordercolor="#eeeeee"
     borderopacity="1"
     inkscape:pageshadow="0"
     inkscape:pageopacity="0"
     inkscape:pagecheckerboard="0"
     inkscape:document-units="mm"
     showgrid="false"
     inkscape:zoom="0.27839155"
     inkscape:cx="752.5372"
     inkscape:cy="364.59439"
     inkscape:window-width="1312"
     inkscape:window-height="847"
     inkscape:window-x="0"
     inkscape:window-y="25"
     inkscape:window-maximized="0"
     inkscape:current-layer="layer1" />
  <defs
     id="defs2" />
  <g
     inkscape:label="Layer 1"
     inkscape:groupmode="layer"
     id="layer1">
    <g
       id="g1917"
       transform="matrix(2.5338486,0,0,2.5338486,-351.09587,186.09266)">
      <path
         d="m 182.22621,-60.690094 q 2.9278,0 4.36508,1.517129 1.46389,1.490513 1.46389,4.790934 v 8.99631 h -4.09891 v -8.99631 q 0,-1.330815 -0.58556,-1.969606 -0.58555,-0.665408 -2.02283,-0.665408 -1.70345,0 -3.40689,1.410664 v 10.22066 h -4.09891 v -14.984977 h 4.09891 v 1.304198 q 1.9696,-1.623594 4.28522,-1.623594 z"
         id="path1893"
         style="font-weight:800;font-size:26.6163px;line-height:1.25;font-family:Biryani;-inkscape-font-specification:'Biryani, Ultra-Bold';fill:#141414;fill-opacity:1;stroke-width:0.665408" />
      <path
         d="m 193.24967,-51.747017 q 0.47909,3.38027 4.20537,3.38027 1.01142,0 1.96961,-0.266163 0.9848,-0.266163 2.20915,-0.851722 l 1.09127,3.193957 q -1.35743,0.745256 -2.71486,1.038035 -1.33082,0.319396 -3.08749,0.319396 -2.55517,0 -4.36508,-0.984803 -1.8099,-1.01142 -2.74147,-2.794712 -0.93158,-1.809908 -0.93158,-4.178759 0,-2.501932 0.95819,-4.285224 0.95819,-1.783293 2.6084,-2.688247 1.65021,-0.93157 3.67305,-0.93157 3.22057,0 5.03048,1.889757 1.83652,1.889757 1.83652,5.536191 v 1.623594 z m 2.87456,-5.616039 q -1.11789,0 -1.83653,0.585558 -0.69202,0.585559 -0.95818,1.916374 h 5.37649 q -0.13308,-1.304199 -0.77187,-1.889758 -0.63879,-0.612174 -1.80991,-0.612174 z"
         id="path1895"
         style="font-weight:800;font-size:26.6163px;line-height:1.25;font-family:Biryani;-inkscape-font-specification:'Biryani, Ultra-Bold';fill:#141414;fill-opacity:1;stroke-width:0.665408" />
      <path
         d="m 224.73448,-60.370698 -5.03048,15.224523 h -5.27003 l -5.08371,-15.224523 h 4.20537 l 3.51335,11.418392 3.46012,-11.418392 z"
         id="path1897"
         style="font-weight:800;font-size:26.6163px;line-height:1.25;font-family:Biryani;-inkscape-font-specification:'Biryani, Ultra-Bold';fill:#141414;fill-opacity:1;stroke-width:0.665408" />
      <path
         d="m 239.73391,-60.370698 v 14.984977 H 235.635 v -1.277583 q -1.99622,1.596978 -4.28522,1.596978 -2.9278,0 -4.39169,-1.490512 -1.43728,-1.490513 -1.43728,-4.790935 v -9.022925 h 4.09891 v 9.022925 q 0,1.330815 0.58556,1.996223 0.61217,0.638791 2.02284,0.638791 1.67682,0 3.40688,-1.43728 v -10.220659 z"
         id="path1899"
         style="font-weight:800;font-size:26.6163px;line-height:1.25;font-family:Biryani;-inkscape-font-specification:'Biryani, Ultra-Bold';fill:#141414;fill-opacity:1;stroke-width:0.665408" />
      <path
         d="m 247.03109,-44.933244 q -1.83653,0 -3.24719,-0.292779 -1.38405,-0.29278 -2.90118,-1.01142 v -3.673049 q 1.4639,0.825105 2.95441,1.197733 1.51713,0.346012 3.19396,0.346012 1.99622,0 1.99622,-1.330815 0,-0.532326 -0.31939,-0.825105 -0.3194,-0.29278 -1.01142,-0.452477 l -2.36885,-0.50571 q -2.15592,-0.452477 -3.19396,-1.517129 -1.03804,-1.064652 -1.03804,-2.95441 0,-4.844166 6.06852,-4.844166 2.50193,0 5.32326,0.958187 v 3.539968 q -1.03804,-0.479094 -2.42208,-0.771873 -1.35743,-0.292779 -2.71487,-0.292779 -1.17111,0 -1.65021,0.292779 -0.45247,0.292779 -0.45247,0.851721 0,0.479094 0.29278,0.718641 0.29278,0.21293 0.93157,0.372628 l 2.36885,0.505709 q 2.26238,0.452478 3.30042,1.51713 1.03803,1.064652 1.03803,3.193956 0,2.475316 -1.67682,3.726282 -1.65021,1.250966 -4.47154,1.250966 z"
         id="path1901"
         style="font-weight:800;font-size:26.6163px;line-height:1.25;font-family:Biryani;-inkscape-font-specification:'Biryani, Ultra-Bold';fill:#141414;fill-opacity:1;stroke-width:0.665408" />
      <g
         id="g1907"
         transform="translate(-3.7041668,5.8208336)"
         style="fill:#141414;fill-opacity:1">
        <path
           style="font-weight:800;font-size:26.6163px;line-height:1.25;font-family:Biryani;-inkscape-font-specification:'Biryani, Ultra-Bold';fill:#141414;fill-opacity:1;stroke-width:0.665408"
           d="m 207.9962,-66.191535 h 4.09891 v 14.984977 h -4.09891 z"
           id="path1903" />
        <ellipse
           style="fill:#ff6b6b;fill-opacity:1;stroke:none;stroke-width:0.605444;stroke-linecap:round;stroke-linejoin:round;paint-order:stroke fill markers"
           id="ellipse1905"
           cx="210.04565"
           cy="-70.760162"
           rx="2.638"
           ry="2.6377437" />
      </g>
      <g
         id="g1915"
         transform="translate(0,37.277441)"
         style="fill:#ff6b6b;fill-opacity:1">
        <path
           style="fill:#ff6b6b;fill-opacity:1;stroke-width:0.021527"
           d="m 161.64549,-92.51462 c -1.42668,-0.133994 -2.96494,-0.713757 -4.84357,-1.82552 -0.87054,-0.515183 -1.49533,-0.972884 -2.80927,-2.057966 -1.75506,-1.44938 -3.18109,-2.323732 -4.53326,-2.779512 -0.62068,-0.209216 -1.09571,-0.298038 -1.69025,-0.316048 -0.5962,-0.01806 -1.12313,0.05005 -1.77677,0.229681 -0.68628,0.188589 -1.63374,0.555501 -2.40164,0.930049 -0.20136,0.09821 -0.2507,0.09984 -0.26112,0.0087 -0.006,-0.05668 0.0411,-0.110702 0.48436,-0.54986 1.40616,-1.393204 2.74947,-2.373914 4.37716,-3.195624 1.5841,-0.79971 3.17344,-1.25572 4.92968,-1.41441 0.42405,-0.0383 1.56586,-0.0323 2.00593,0.0105 1.60283,0.15612 2.93632,0.54239 4.36819,1.2653 1.85244,0.93526 3.48007,2.395518 4.90881,4.227106 0.9161,1.174411 1.52044,2.873935 0.84985,4.09682 -0.6186,1.128098 -2.01635,1.520312 -3.6081,1.370813 z"
           id="path1909" />
        <path
           style="fill:#ff6b6b;fill-opacity:1;stroke-width:0.0217082"
           d="m 144.40625,-89.990281 c -0.87578,-1.256951 -1.03319,-2.642115 -0.41599,-3.660334 0.34808,-0.574244 0.84974,-0.980277 1.56533,-1.266965 1.63025,-0.653116 3.96305,-0.288731 5.82618,0.910047 0.6796,0.437273 1.08097,0.78532 1.56358,1.355853 0.3316,0.391988 0.51777,0.662423 0.70717,1.02706 0.23274,0.448141 0.38716,0.951651 0.43368,1.414119 0.0287,0.285647 -0.015,0.791473 -0.091,1.051405 -0.10853,0.371473 -0.30902,0.73926 -0.55666,1.021173 -0.1411,0.160564 -0.48081,0.447976 -0.67285,0.569203 -0.42462,0.267951 -0.99661,0.47237 -1.55807,0.556858 -2.43806,0.366873 -5.36304,-0.914006 -6.80137,-2.978384 z"
           id="path1911" />
        <path
           style="fill:#ff6b6b;fill-opacity:1;stroke-width:0.021527"
           d="m 153.04547,-77.124674 c -0.44855,-0.0278 -0.78317,-0.0573 -1.07293,-0.095 -2.37312,-0.30826 -4.61299,-1.32024 -6.48305,-2.9291 -0.4602,-0.39591 -0.66304,-0.59314 -1.17495,-1.14243 -1.16245,-1.247365 -2.17997,-2.890886 -2.87976,-4.651455 -0.2266,-0.570094 -0.29008,-0.760493 -0.27439,-0.823008 0.019,-0.07586 0.10293,-0.0736 0.16319,0.0046 0.0629,0.08139 0.56443,0.551655 0.97991,0.9188 1.18403,1.046276 2.08902,1.688223 3.09989,2.198876 1.05656,0.53374 2.00156,0.820312 3.16447,0.959622 0.29818,0.0357 1.21662,0.0356 1.50689,-2.3e-4 1.26024,-0.15551 2.2751,-0.506527 4.12861,-1.42799 1.26708,-0.629929 1.64926,-0.841001 3.45965,-1.91073 1.8626,-1.100582 3.50681,-1.800944 4.70365,-2.021757 1.6561,-0.305546 2.94135,0.423378 3.14305,1.885131 0.10711,0.776264 -0.0407,1.606173 -0.40535,2.357701 -0.12096,0.249298 -0.2584,0.474478 -0.50817,0.832599 -0.0363,0.0521 -0.0661,0.112014 -0.0661,0.133126 0,0.0798 -0.72201,0.911125 -1.25937,1.450105 -2.47872,2.4862 -5.52575,3.96147 -8.73992,4.23156 -0.27561,0.0232 -1.27036,0.0432 -1.48536,0.0299 z"
           id="path1913" />
      </g>
    </g>
  </g>
</svg>
