<?xml version="1.0" encoding="UTF-8" standalone="no"?>
<!-- Created with Inkscape (http://www.inkscape.org/) -->

<svg
   width="500"
   height="500"
   viewBox="0 0 132.29167 132.29167"
   version="1.1"
   id="svg5"
   inkscape:version="1.1.1 (c3084ef, 2021-09-22)"
   sodipodi:docname="person.svg"
   xmlns:inkscape="http://www.inkscape.org/namespaces/inkscape"
   xmlns:sodipodi="http://sodipodi.sourceforge.net/DTD/sodipodi-0.dtd"
   xmlns="http://www.w3.org/2000/svg"
   xmlns:svg="http://www.w3.org/2000/svg">
  <sodipodi:namedview
     id="namedview7"
     pagecolor="#ffffff"
     bordercolor="#eeeeee"
     borderopacity="1"
     inkscape:pageshadow="0"
     inkscape:pageopacity="0"
     inkscape:pagecheckerboard="0"
     inkscape:document-units="px"
     showgrid="false"
     inkscape:zoom="0.55678311"
     inkscape:cx="324.18368"
     inkscape:cy="273.8948"
     inkscape:window-width="1312"
     inkscape:window-height="847"
     inkscape:window-x="0"
     inkscape:window-y="25"
     inkscape:window-maximized="0"
     inkscape:current-layer="layer1"
     units="px" />
  <defs
     id="defs2" />
  <g
     inkscape:label="Layer 1"
     inkscape:groupmode="layer"
     id="layer1">
    <path
       style="fill:#333333;stroke-width:0.236744"
       d="m 33.139803,126.49354 c -5.094121,-0.75474 -8.455674,-2.38987 -11.878955,-5.77819 -4.881977,-4.83212 -6.330834,-10.25843 -5.562659,-20.833482 0.504281,-6.942167 1.762569,-13.42923 3.509283,-18.092004 1.02848,-2.745478 3.259911,-6.933529 4.672049,-8.768707 4.297977,-5.585543 10.367321,-8.689978 17.245849,-8.821156 2.573328,-0.04908 2.798767,0.04663 8.20496,3.483128 4.106594,2.6104 4.304782,2.714951 7.140133,3.766767 3.957481,1.468085 5.922847,1.840152 9.662869,1.829288 5.809747,-0.01688 10.361225,-1.554483 16.731975,-5.652494 5.559722,-3.576316 5.905894,-3.698937 9.485069,-3.359808 12.742214,1.207333 20.520014,10.892505 23.372754,29.104524 1.0044,6.412112 1.08119,15.074964 0.16474,18.584414 -1.84437,7.06284 -7.12468,12.1754 -14.58554,14.12217 l -2.130694,0.55596 -32.315567,0.0336 c -17.773562,0.0185 -32.945882,-0.0598 -33.716266,-0.17397 z m 65.757648,-7.19096 c 3.922109,-0.69906 7.337559,-3.06996 8.986889,-6.2384 1.13228,-2.17517 1.5861,-4.40587 1.58358,-7.78393 -0.007,-9.369203 -1.67841,-18.350087 -4.44143,-23.86442 -3.08873,-6.164371 -6.986455,-9.247293 -12.699935,-10.045078 -1.908304,-0.26646 -1.435278,-0.461608 -6.143414,2.534466 -4.114324,2.618196 -6.413068,3.727759 -10.119813,4.884654 -3.675902,1.147271 -6.331143,1.560609 -10.025156,1.560609 -3.800367,0 -6.670906,-0.460872 -10.333507,-1.659069 C 51.8045,77.415494 49.939714,76.493729 45.473121,73.633948 l -3.931533,-2.517205 -1.724963,0.241223 c -6.586919,0.921131 -11.102888,5.086489 -13.984524,12.898793 -2.129746,5.773883 -3.573788,16.178801 -3.170645,22.845801 0.411915,6.81208 4.31627,11.17558 11.010398,12.30521 0.607966,0.1026 15.114723,0.19535 32.237238,0.20612 25.681984,0.0162 31.456842,-0.0383 32.988359,-0.31131 z M 62.831419,63.75591 C 53.49271,63.114954 44.868438,57.64305 39.919211,49.218635 35.620521,41.90154 34.923303,31.806112 38.166296,23.837148 41.649133,15.278818 49.51933,8.4375995 58.21491,6.4097627 68.60614,3.9864944 78.584413,6.7922425 85.937462,14.204949 c 5.071245,5.112391 7.794396,10.960497 8.346045,17.923559 0.553769,6.989805 -0.957286,13.065366 -4.660764,18.73974 -1.413459,2.165671 -6.092102,6.849331 -8.214508,8.223323 -5.637918,3.649841 -11.588628,5.143968 -18.576816,4.664339 z m 4.70492,-7.085031 C 70.35284,56.374225 72.21233,55.891896 74.359064,54.901144 80.392518,52.116612 85.040898,46.641211 86.652505,40.420502 87.142307,38.529893 87.258562,37.512523 87.2703,35.01399 87.28687,31.485814 87.009127,29.738422 85.979408,26.892662 84.005682,21.438003 78.444583,15.933393 72.859648,13.90617 69.066667,12.529392 63.674425,12.296094 59.635374,13.334016 52.310387,15.21633 45.853043,21.663967 43.850273,29.095388 c -0.735178,2.727935 -0.745374,8.393446 -0.02008,11.158106 1.007993,3.842235 2.592544,6.594613 5.614864,9.753046 3.751805,3.920773 8.065888,6.086061 13.267993,6.659356 2.376163,0.261862 2.384347,0.261872 4.823292,0.005 z"
       id="path1622" />
  </g>
</svg>
